<?xml version="1.0" encoding="UTF-8"?>
<svg xmlns="http://www.w3.org/2000/svg" xmlns:xlink="http://www.w3.org/1999/xlink" viewBox="0 0 50 50" width="50px" height="50px">
<g id="surface18038855">
<path style=" stroke:none;fill-rule:nonzero;fill:rgb(100%,100%,100%);fill-opacity:1;" d="M 18.535156 1 C 18.421875 1 18.308594 1.019531 18.203125 1.054688 C 18.203125 1.054688 12.054688 3.246094 10.308594 10.515625 C 9.371094 14.40625 8.902344 16.347656 8.902344 16.347656 C 8.839844 16.605469 8.882812 16.878906 9.019531 17.105469 C 9.15625 17.332031 9.378906 17.492188 9.640625 17.554688 L 9.171875 19.496094 C 8.632812 19.371094 8.09375 19.699219 7.964844 20.238281 L 7.027344 24.128906 C 6.964844 24.386719 7.007812 24.65625 7.144531 24.882812 C 7.285156 25.109375 7.507812 25.273438 7.765625 25.332031 L 14.570312 26.972656 C 14.828125 27.035156 15.101562 26.992188 15.328125 26.855469 C 15.554688 26.714844 15.714844 26.492188 15.777344 26.234375 L 16.714844 22.347656 C 16.773438 22.085938 16.730469 21.816406 16.59375 21.589844 C 16.457031 21.363281 16.234375 21.199219 15.976562 21.140625 L 16.445312 19.195312 L 18.320312 19.644531 L 18.355469 19.65625 C 18.363281 19.65625 18.375 19.660156 18.386719 19.664062 L 18.390625 19.664062 L 39.824219 24.945312 C 39.824219 24.945312 39.828125 24.945312 39.832031 24.945312 C 39.960938 24.976562 40.085938 24.992188 40.203125 25 C 40.210938 25 40.21875 25 40.230469 25.003906 C 41.160156 25.035156 42.019531 24.402344 42.242188 23.472656 L 42.945312 20.554688 C 42.945312 20.550781 42.945312 20.550781 42.945312 20.550781 C 42.984375 20.386719 43 20.21875 43 20.054688 C 43 20.054688 43 20.050781 43 20.050781 C 42.980469 19.15625 42.363281 18.355469 41.46875 18.140625 L 41.472656 18.140625 L 20.09375 12.875 C 20.089844 12.875 20.085938 12.871094 20.082031 12.871094 L 20.03125 12.859375 C 20.03125 12.859375 20.027344 12.859375 20.027344 12.859375 L 19.054688 12.625 C 17.96875 12.363281 17.320312 11.296875 17.578125 10.210938 L 19.5 2.234375 C 19.574219 1.9375 19.503906 1.625 19.316406 1.382812 C 19.128906 1.144531 18.839844 1 18.535156 1 Z M 17.003906 4.054688 L 15.636719 9.742188 C 15.121094 11.878906 16.449219 14.050781 18.585938 14.566406 L 18.082031 16.667969 L 17.886719 17.484375 L 16.910156 17.25 C 15.847656 16.996094 14.753906 17.664062 14.5 18.726562 L 14.03125 20.671875 C 13.867188 21.355469 14.171875 21.964844 14.632812 22.441406 L 14.066406 24.792969 L 9.207031 23.625 L 9.773438 21.269531 C 10.402344 21.054688 10.949219 20.652344 11.117188 19.96875 L 11.585938 18.023438 C 11.75 17.339844 11.445312 16.730469 10.984375 16.253906 C 11.066406 15.910156 11.40625 14.496094 12.25 10.984375 C 13.257812 6.792969 15.382812 5.042969 17.003906 4.058594 Z M 20.53125 15.042969 L 40.996094 20.082031 C 40.996094 20.082031 40.996094 20.082031 41 20.085938 C 41 20.085938 41 20.085938 40.996094 20.089844 L 40.296875 23 L 40.292969 23 L 19.828125 17.957031 L 19.957031 17.429688 Z M 12 29 C 11.449219 29 11 29.449219 11 30 L 11 31 L 6 31 C 5.449219 31 5 31.449219 5 32 C 5 35.300781 7.699219 38 11 38 L 11 39 C 11 39.550781 11.449219 40 12 40 L 22.863281 40 C 22.417969 41.726562 20.871094 43 19 43 C 18.742188 43.003906 18.5 43.105469 18.316406 43.285156 C 17.039062 43.628906 16 44.621094 16 46 L 16 48 C 16 48.550781 16.449219 49 17 49 L 21 49 C 21.265625 49 21.519531 48.894531 21.707031 48.707031 C 21.707031 48.707031 22.066406 48.335938 22.949219 47.894531 C 23.828125 47.453125 25.167969 47 27 47 C 28.832031 47 30.171875 47.453125 31.050781 47.894531 C 31.933594 48.335938 32.292969 48.707031 32.292969 48.707031 C 32.480469 48.894531 32.734375 49 33 49 L 37 49 C 37.550781 49 38 48.550781 38 48 L 38 46 C 38 44.621094 36.960938 43.628906 35.683594 43.285156 C 35.5 43.105469 35.257812 43.003906 35 43 C 33.128906 43 31.582031 41.726562 31.136719 40 L 35 40 C 40.511719 40 45 35.511719 45 30 C 45 29.449219 44.550781 29 44 29 Z M 13 31 L 42.800781 31 C 42.289062 34.933594 39.074219 38 35 38 L 30.167969 38 C 30.058594 37.980469 29.949219 37.980469 29.839844 38 L 24.152344 38 C 24.097656 37.992188 24.042969 37.984375 23.984375 37.988281 C 23.9375 37.988281 23.886719 37.992188 23.839844 38 L 13 38 L 13 37.167969 C 13.019531 37.058594 13.019531 36.949219 13 36.839844 L 13 32.167969 C 13.019531 32.058594 13.019531 31.949219 13 31.839844 Z M 7.199219 33 L 11 33 L 11 36 C 9.136719 36 7.648438 34.71875 7.199219 33 Z M 24.910156 40 L 29.089844 40 C 29.570312 42.828125 32.039062 45 35 45 C 35.566406 45 36 45.433594 36 46 L 36 47 L 33.273438 47 C 33.042969 46.796875 32.789062 46.527344 31.949219 46.105469 C 30.828125 45.546875 29.167969 45 27 45 C 24.832031 45 23.171875 45.546875 22.050781 46.105469 C 21.210938 46.527344 20.957031 46.796875 20.726562 47 L 18 47 L 18 46 C 18 45.433594 18.433594 45 19 45 C 21.960938 45 24.429688 42.828125 24.910156 40 Z M 24.910156 40 "/>
</g>
</svg>
