<?xml version="1.0" encoding="UTF-8"?>
<svg xmlns="http://www.w3.org/2000/svg" xmlns:xlink="http://www.w3.org/1999/xlink" viewBox="0 0 150 150" width="150px" height="150px">
<g id="surface18038458">
<path style=" stroke:none;fill-rule:nonzero;fill:rgb(100%,100%,100%);fill-opacity:1;" d="M 55.605469 3 C 55.265625 2.996094 54.925781 3.054688 54.605469 3.164062 C 54.605469 3.164062 36.167969 9.742188 30.921875 31.546875 C 28.113281 43.214844 26.703125 49.042969 26.703125 49.042969 C 26.515625 49.816406 26.644531 50.632812 27.058594 51.3125 C 27.472656 51.992188 28.140625 52.476562 28.917969 52.664062 L 27.511719 58.492188 C 25.898438 58.109375 24.28125 59.101562 23.894531 60.710938 L 21.082031 72.382812 C 20.894531 73.15625 21.023438 73.972656 21.4375 74.648438 C 21.855469 75.328125 22.523438 75.816406 23.296875 76 L 43.710938 80.917969 C 44.484375 81.105469 45.300781 80.976562 45.980469 80.5625 C 46.660156 80.144531 47.144531 79.476562 47.332031 78.703125 L 50.140625 67.039062 C 50.324219 66.261719 50.195312 65.445312 49.78125 64.769531 C 49.367188 64.089844 48.699219 63.601562 47.925781 63.417969 L 49.332031 57.585938 L 54.960938 58.933594 L 55.066406 58.964844 C 55.09375 58.972656 55.125 58.980469 55.15625 58.988281 L 55.167969 58.988281 L 119.472656 74.832031 C 119.476562 74.832031 119.484375 74.835938 119.492188 74.835938 C 119.882812 74.929688 120.261719 74.980469 120.609375 75 C 120.632812 75.003906 120.660156 75.003906 120.6875 75.007812 C 123.484375 75.101562 126.054688 73.203125 126.726562 70.414062 L 128.832031 61.660156 C 128.832031 61.65625 128.835938 61.652344 128.835938 61.648438 C 128.949219 61.15625 129 60.652344 128.996094 60.164062 C 128.996094 60.160156 128.996094 60.152344 128.996094 60.148438 C 128.945312 57.472656 127.089844 55.070312 124.402344 54.421875 L 124.417969 54.421875 L 60.28125 38.625 C 60.269531 38.621094 60.257812 38.617188 60.246094 38.613281 L 60.09375 38.578125 C 60.089844 38.574219 60.085938 38.574219 60.082031 38.574219 L 57.164062 37.871094 C 53.90625 37.085938 51.957031 33.890625 52.738281 30.632812 L 58.503906 6.703125 C 58.71875 5.8125 58.515625 4.871094 57.949219 4.148438 C 57.386719 3.429688 56.523438 3.003906 55.605469 3 Z M 51.011719 12.167969 L 46.90625 29.226562 C 45.359375 35.636719 49.347656 42.15625 55.757812 43.699219 L 54.242188 50.007812 L 53.65625 52.453125 L 50.730469 51.75 C 47.546875 50.984375 44.261719 52.992188 43.496094 56.179688 L 42.09375 62.015625 C 41.601562 64.070312 42.511719 65.890625 43.898438 67.324219 L 42.199219 74.378906 L 27.621094 70.871094 L 29.320312 63.808594 C 31.207031 63.160156 32.851562 61.957031 33.347656 59.902344 L 34.753906 54.070312 C 35.246094 52.015625 34.332031 50.191406 32.949219 48.757812 C 33.195312 47.734375 34.214844 43.488281 36.75 32.953125 C 39.777344 20.375 46.148438 15.125 51.011719 12.171875 Z M 61.59375 45.125 L 122.984375 60.246094 C 122.988281 60.25 122.992188 60.25 123 60.253906 C 123 60.257812 122.996094 60.257812 122.992188 60.269531 L 120.890625 69 L 120.882812 69 L 59.484375 53.871094 L 59.867188 52.285156 Z M 36 87 C 34.34375 87 33 88.34375 33 90 L 33 93 L 18 93 C 16.34375 93 15 94.34375 15 96 C 15 105.90625 23.09375 114 33 114 L 33 117 C 33 118.65625 34.34375 120 36 120 L 68.585938 120 C 67.257812 125.183594 62.617188 129 57 129 C 56.230469 129.011719 55.5 129.316406 54.949219 129.855469 C 51.117188 130.886719 48 133.863281 48 138 L 48 144 C 48 145.65625 49.34375 147 51 147 L 63 147 C 63.796875 147 64.558594 146.683594 65.121094 146.121094 C 65.121094 146.121094 66.199219 145.003906 68.84375 143.683594 C 71.484375 142.363281 75.5 141 81 141 C 86.5 141 90.515625 142.363281 93.15625 143.683594 C 95.800781 145.003906 96.878906 146.121094 96.878906 146.121094 C 97.441406 146.683594 98.203125 147 99 147 L 111 147 C 112.65625 147 114 145.65625 114 144 L 114 138 C 114 133.863281 110.882812 130.886719 107.050781 129.855469 C 106.5 129.316406 105.769531 129.011719 105 129 C 99.382812 129 94.742188 125.183594 93.414062 120 L 105 120 C 121.535156 120 135 106.535156 135 90 C 135 88.34375 133.65625 87 132 87 Z M 39 93 L 128.398438 93 C 126.867188 104.796875 117.226562 114 105 114 L 90.503906 114 C 90.179688 113.945312 89.847656 113.945312 89.523438 114 L 72.460938 114 C 72.292969 113.972656 72.125 113.957031 71.953125 113.960938 C 71.808594 113.960938 71.664062 113.976562 71.519531 114 L 39 114 L 39 111.503906 C 39.054688 111.179688 39.054688 110.847656 39 110.523438 L 39 96.503906 C 39.054688 96.179688 39.054688 95.847656 39 95.523438 Z M 21.597656 99 L 33 99 L 33 108 C 27.40625 108 22.945312 104.152344 21.597656 99 Z M 74.726562 120 L 87.273438 120 C 88.714844 128.484375 96.121094 135 105 135 C 106.695312 135 108 136.304688 108 138 L 108 141 L 99.820312 141 C 99.128906 140.394531 98.371094 139.582031 95.84375 138.316406 C 92.484375 136.636719 87.5 135 81 135 C 74.5 135 69.515625 136.636719 66.15625 138.316406 C 63.628906 139.582031 62.871094 140.394531 62.179688 141 L 54 141 L 54 138 C 54 136.304688 55.304688 135 57 135 C 65.878906 135 73.285156 128.484375 74.726562 120 Z M 74.726562 120 "/>
</g>
</svg>
